<svg id="education" xmlns="http://www.w3.org/2000/svg" width="34.136" height="34.136" viewBox="0 0 34.136 34.136">
  <g id="Group_140" data-name="Group 140" transform="translate(0 0)">
    <g id="Group_139" data-name="Group 139" transform="translate(0 0)">
      <path id="Path_748" data-name="Path 748" d="M33.567,0h-33A.569.569,0,0,0,0,.569H0V11.948H1.138V1.138H33V13.654H13.085v1.138H33.567a.569.569,0,0,0,.569-.569h0V.569A.569.569,0,0,0,33.567,0Z" transform="translate(0 0)" fill="#fff"/>
    </g>
  </g>
  <g id="Group_142" data-name="Group 142" transform="translate(18.775 2.845)">
    <g id="Group_141" data-name="Group 141">
      <rect id="Rectangle_23" data-name="Rectangle 23" width="11.379" height="1.138" fill="#fff"/>
    </g>
  </g>
  <g id="Group_144" data-name="Group 144" transform="translate(20.481 6.258)">
    <g id="Group_143" data-name="Group 143">
      <rect id="Rectangle_24" data-name="Rectangle 24" width="11.379" height="1.138" fill="#fff"/>
    </g>
  </g>
  <g id="Group_146" data-name="Group 146" transform="translate(18.206 9.672)">
    <g id="Group_145" data-name="Group 145">
      <rect id="Rectangle_25" data-name="Rectangle 25" width="11.379" height="1.138" fill="#fff"/>
    </g>
  </g>
  <g id="Group_148" data-name="Group 148" transform="translate(0 2.276)">
    <g id="Group_147" data-name="Group 147" transform="translate(0)">
      <path id="Path_749" data-name="Path 749" d="M18.16,34.629a1.836,1.836,0,0,0-2.4-.99l-.048.021L11.1,36.053a2.813,2.813,0,0,0,.279-1.209,2.845,2.845,0,1,0-5.106,1.707H6.249a3.9,3.9,0,0,0-3.627,2.526L1.1,44.312a1.822,1.822,0,1,0,3.422,1.253l.595-1.893v8.234A2.836,2.836,0,0,0,1.429,56.2,2.621,2.621,0,0,0,0,58.524v4.768a.569.569,0,0,0,.569.569h5.69a.569.569,0,0,0,.569-.569h0V58.524a2.615,2.615,0,0,0-1.015-2.06h4.306A2.615,2.615,0,0,0,9.1,58.524v4.768a.569.569,0,0,0,.569.569h5.69a.569.569,0,0,0,.569-.569h0V58.524A2.621,2.621,0,0,0,14.5,56.2a2.842,2.842,0,0,0-2.554-4.819V39.742L17.17,37.03A1.836,1.836,0,0,0,18.16,34.629ZM8.534,33.138a1.707,1.707,0,1,1-1.707,1.707A1.707,1.707,0,0,1,8.534,33.138ZM3.414,52.46a1.707,1.707,0,1,1-1.707,1.707A1.707,1.707,0,0,1,3.414,52.46ZM5.689,62.722H1.138v-4.2a1.493,1.493,0,0,1,1.491-1.491H4.2a1.493,1.493,0,0,1,1.491,1.491Zm9.1-4.2v4.2H10.241v-4.2a1.493,1.493,0,0,1,1.491-1.491H13.3A1.493,1.493,0,0,1,14.792,58.524ZM12.516,52.46a1.707,1.707,0,1,1-1.707,1.707A1.709,1.709,0,0,1,12.516,52.46Zm4.6-16.882A.732.732,0,0,1,16.69,36l-5.573,2.891a.569.569,0,0,0-.307.505v12.51a2.806,2.806,0,0,0-.885,3.42H9.1V45.654H7.965v9.672H6.006a2.818,2.818,0,0,0,.25-1.138h0V39.965a.569.569,0,0,0-1.112-.171L3.448,45.2a.684.684,0,0,1-.949.378.7.7,0,0,1-.318-.9L3.7,39.441a2.749,2.749,0,0,1,2.549-1.751h4.028a.567.567,0,0,0,.262-.064l5.655-2.935a.7.7,0,0,1,.9.332A.692.692,0,0,1,17.119,35.579Z" transform="translate(0 -32)" fill="#fff"/>
    </g>
  </g>
  <g id="Group_150" data-name="Group 150" transform="translate(18.206 21.592)">
    <g id="Group_149" data-name="Group 149">
      <path id="Path_750" data-name="Path 750" d="M261.4,308.5a2.845,2.845,0,1,0-4.023-.052l.052.052A2.621,2.621,0,0,0,256,310.826v4.768a.569.569,0,0,0,.569.569h5.69a.569.569,0,0,0,.569-.569h0v-4.768A2.621,2.621,0,0,0,261.4,308.5Zm-1.985-3.738a1.707,1.707,0,1,1-1.707,1.707A1.707,1.707,0,0,1,259.414,304.762Zm2.276,10.262h-4.551v-4.2a1.493,1.493,0,0,1,1.491-1.491h1.57a1.493,1.493,0,0,1,1.491,1.491Z" transform="translate(-256 -303.618)" fill="#fff"/>
    </g>
  </g>
  <g id="Group_152" data-name="Group 152" transform="translate(27.309 21.592)">
    <g id="Group_151" data-name="Group 151">
      <path id="Path_751" data-name="Path 751" d="M389.4,308.5a2.845,2.845,0,1,0-4.023-.052l.052.052A2.621,2.621,0,0,0,384,310.826v4.768a.569.569,0,0,0,.569.569h5.69a.569.569,0,0,0,.569-.569h0v-4.768A2.621,2.621,0,0,0,389.4,308.5Zm-1.985-3.738a1.707,1.707,0,1,1-1.707,1.707A1.707,1.707,0,0,1,387.414,304.762Zm2.276,10.262h-4.551v-4.2a1.493,1.493,0,0,1,1.491-1.491h1.57a1.493,1.493,0,0,1,1.491,1.491Z" transform="translate(-384 -303.618)" fill="#fff"/>
    </g>
  </g>
</svg>
