<svg id="Group_138" data-name="Group 138" xmlns="http://www.w3.org/2000/svg" width="33.026" height="46.592" viewBox="0 0 33.026 46.592">
  <path id="Path_747" data-name="Path 747" d="M103.07,30.774v-4.85l-2.047.8-.006-.014-.049-.089a5.269,5.269,0,0,0-3.481-2.33l-4.925-.9V23a7.519,7.519,0,0,0,3.611-5.051,3.007,3.007,0,0,0,2.394-2.94V7.6A4.707,4.707,0,0,0,95.2,3.082l-.375-.375A9.242,9.242,0,0,0,79.051,9.242v5.77a3.007,3.007,0,0,0,2.394,2.94A7.52,7.52,0,0,0,85.056,23v.389l-4.925.9a5.27,5.27,0,0,0-3.48,2.328l-.045.11-2.059-.8v4.85A2.255,2.255,0,0,0,72.3,33.026v3a2.255,2.255,0,0,0,2.252,2.252v2.765l14.261,5.547,14.261-5.547V38.28a2.255,2.255,0,0,0,2.252-2.252v-3A2.255,2.255,0,0,0,103.07,30.774Zm-9.1-5.6,3.25.591a3.76,3.76,0,0,1,2.37,1.513L92.326,30.1Zm-7.348-1.482a7.478,7.478,0,0,0,4.376,0l-2.188,1.641Zm1.046,2.66-1.532,1.531L85.141,24.9l.478-.086ZM92,24.817l.478.086-.994,2.981-1.532-1.531ZM96.315,16.3V13.719a1.488,1.488,0,0,1,0,2.585ZM81.3,16.3a1.488,1.488,0,0,1,0-2.585Zm0-5.045v.857a2.977,2.977,0,0,0-.751.311V9.242A7.741,7.741,0,0,1,93.767,3.769l.662.663.2.05A3.208,3.208,0,0,1,97.065,7.6v4.829a2.95,2.95,0,0,0-.751-.311v-.857h-2.38a6.529,6.529,0,0,1-5.2-2.6l-.6-.8L86.649,9.356a6.458,6.458,0,0,1-4.6,1.9Zm1.5,5.254V12.725a7.945,7.945,0,0,0,4.906-2.308L88,10.125a8.04,8.04,0,0,0,5.933,2.635h.879v3.753a6,6,0,1,1-12.009,0Zm-2.4,9.252,3.25-.591L85.292,30.1l-7.263-2.824A3.759,3.759,0,0,1,80.4,25.765ZM73.8,36.028v-3a.751.751,0,0,1,.751-.751,2.252,2.252,0,1,1,0,4.5A.751.751,0,0,1,73.8,36.028Zm14.261,8.66L76.049,40.019V37.962a3.745,3.745,0,0,0,0-6.869V28.119l12.009,4.67ZM85.83,30.312l2.979-2.98,2.979,2.979L88.809,31.47Zm15.739,9.707L89.56,44.688v-11.9l12.009-4.67v2.974a3.745,3.745,0,0,0,0,6.869Zm2.252-3.99a.751.751,0,0,1-.751.751,2.252,2.252,0,1,1,0-4.5.751.751,0,0,1,.751.751Z" transform="translate(-72.296)" fill="#fff"/>
</svg>
