<svg xmlns="http://www.w3.org/2000/svg" width="11.188" height="10.669" viewBox="0 0 11.188 10.669">
  <g id="star_1_" data-name="star (1)" transform="translate(0 -0.452)">
    <path id="Path_494" data-name="Path 494" d="M5.858.628,7.281,4l3.643.313a.287.287,0,0,1,.164.5L8.324,7.206l.828,3.562a.287.287,0,0,1-.428.311L5.594,9.19,2.463,11.078a.287.287,0,0,1-.428-.311l.828-3.562L.1,4.811a.287.287,0,0,1,.164-.5L3.906,4,5.329.628a.287.287,0,0,1,.529,0Z" transform="translate(0)" fill="#9b9b9b"/>
  </g>
</svg>
