<svg id="Group_134" data-name="Group 134" xmlns="http://www.w3.org/2000/svg" width="12.81" height="12.81" viewBox="0 0 12.81 12.81">
  <path id="Path_710" data-name="Path 710" d="M33.367,40.138a6.4,6.4,0,1,1-6.406-6.4A6.407,6.407,0,0,1,33.367,40.138Z" transform="translate(-20.557 -33.735)" fill="#9b9b9b"/>
  <g id="Group_130" data-name="Group 130" transform="translate(2.5 2.479)">
    <path id="Path_711" data-name="Path 711" d="M29.074,37.554a3.9,3.9,0,0,0-3.8-3.008,5.5,5.5,0,0,0-.746.076A3.89,3.89,0,0,0,21.867,40.3a.254.254,0,0,1,.034.193c-.18.6-.348,1.207-.51,1.809-.028.1-.028.1.073.079.633-.174,1.256-.333,1.886-.492a.172.172,0,0,1,.141.009,3.894,3.894,0,0,0,5.584-4.343Zm-3.249,4.077a1.65,1.65,0,0,1-.449.04,3.385,3.385,0,0,1-1.757-.449.209.209,0,0,0-.2-.034c-.351.086-.694.18-1.042.272-.073.021-.079.009-.064-.067.092-.318.18-.648.281-.981a.252.252,0,0,0-.04-.232,3.215,3.215,0,0,1,.113-3.628,3.087,3.087,0,0,1,3.295-1.268,3.054,3.054,0,0,1,2.473,2.457A3.209,3.209,0,0,1,25.825,41.631Z" transform="translate(-21.375 -34.546)" fill="#fff" fill-rule="evenodd"/>
    <path id="Path_712" data-name="Path 712" d="M24.994,38.9a1.017,1.017,0,0,1-.4-.055,3.93,3.93,0,0,1-2.109-1.55,2.21,2.21,0,0,1-.449-.914,1.063,1.063,0,0,1,.348-1.042.617.617,0,0,1,.52-.079.486.486,0,0,1,.089.107c.11.275.226.532.339.795a.21.21,0,0,1-.018.165,1.527,1.527,0,0,1-.238.324.145.145,0,0,0-.021.214A2.612,2.612,0,0,0,24.38,38a.148.148,0,0,0,.2-.046c.1-.116.2-.241.29-.364a.165.165,0,0,1,.217-.052c.193.086.379.174.562.257a.716.716,0,0,0,.131.061c.193.1.193.11.168.318a.811.811,0,0,1-.694.712A.685.685,0,0,1,24.994,38.9Z" transform="translate(-20.073 -33.144)" fill="#fff" fill-rule="evenodd"/>
  </g>
</svg>
